<svg width="13" height="14" viewBox="0 0 13 14" fill="none" xmlns="http://www.w3.org/2000/svg">
<path d="M6.38484 1.46283C6.47562 1.38407 6.56043 1.29925 6.63919 1.20848C6.71794 1.29925 6.80276 1.38407 6.89354 1.46283C6.80276 1.54158 6.71794 1.6264 6.63919 1.71718C6.56043 1.6264 6.47562 1.54158 6.38484 1.46283Z" stroke="white" stroke-width="0.754789"/>
<path d="M11.5784 3.29577C11.6692 3.21701 11.754 3.1322 11.8328 3.04142C11.9115 3.1322 11.9964 3.21701 12.0871 3.29577C11.9964 3.37453 11.9115 3.45934 11.8328 3.55012C11.754 3.45934 11.6692 3.37453 11.5784 3.29577Z" stroke="white" stroke-width="0.754789"/>
<path d="M1.19099 3.29577C1.28177 3.21701 1.36658 3.1322 1.44534 3.04142C1.5241 3.1322 1.60891 3.21701 1.69969 3.29577C1.60891 3.37453 1.5241 3.45934 1.44534 3.55012C1.36658 3.45934 1.28177 3.37453 1.19099 3.29577Z" stroke="white" stroke-width="0.754789"/>
<path d="M6.63914 13.3779C9.3388 13.3779 11.5273 11.1894 11.5273 8.48969C11.5273 5.79004 9.3388 3.60153 6.63914 3.60153C3.93948 3.60153 1.75098 5.79004 1.75098 8.48969C1.75098 11.1894 3.93948 13.3779 6.63914 13.3779Z" stroke="white" stroke-width="0.754789" stroke-miterlimit="10"/>
<path d="M6.63892 12.0639C8.61305 12.0639 10.2134 10.4636 10.2134 8.48948C10.2134 6.51535 8.61305 4.91501 6.63892 4.91501C4.6648 4.91501 3.06445 6.51535 3.06445 8.48948C3.06445 10.4636 4.6648 12.0639 6.63892 12.0639Z" stroke="white" stroke-width="0.754789" stroke-miterlimit="10" stroke-linecap="round" stroke-linejoin="round"/>
<path d="M6.63916 3.60153V4.82357" stroke="white" stroke-width="0.754789" stroke-miterlimit="10" stroke-linecap="round" stroke-linejoin="round"/>
<path d="M10.0915 5.03748L9.23608 5.8929" stroke="white" stroke-width="0.754789" stroke-miterlimit="10" stroke-linecap="round" stroke-linejoin="round"/>
<path d="M11.5277 8.48972H10.3057" stroke="white" stroke-width="0.754789" stroke-miterlimit="10" stroke-linecap="round" stroke-linejoin="round"/>
<path d="M10.0915 11.942L9.23608 11.0866" stroke="white" stroke-width="0.754789" stroke-miterlimit="10" stroke-linecap="round" stroke-linejoin="round"/>
<path d="M6.63916 13.3776V12.1556" stroke="white" stroke-width="0.754789" stroke-miterlimit="10" stroke-linecap="round" stroke-linejoin="round"/>
<path d="M3.18677 11.942L4.0422 11.0866" stroke="white" stroke-width="0.754789" stroke-miterlimit="10" stroke-linecap="round" stroke-linejoin="round"/>
<path d="M1.75098 8.48972H2.97302" stroke="white" stroke-width="0.754789" stroke-miterlimit="10" stroke-linecap="round" stroke-linejoin="round"/>
<path d="M3.18677 5.03748L4.0422 5.8929" stroke="white" stroke-width="0.754789" stroke-miterlimit="10" stroke-linecap="round" stroke-linejoin="round"/>
<path d="M5.87573 9.65059L6.02849 9.80334C6.18124 9.9561 6.36455 10.0172 6.57841 10.0172H6.63951C7.06722 10.0172 7.40328 9.68114 7.40328 9.25342C7.40328 8.82571 7.06722 8.48965 6.63951 8.48965C6.21179 8.48965 5.87573 8.15359 5.87573 7.72587C5.87573 7.29816 6.21179 6.9621 6.63951 6.9621H6.70061C6.91447 6.9621 7.09777 7.05375 7.25053 7.17595L7.40328 7.32871" stroke="white" stroke-width="0.754789" stroke-miterlimit="10" stroke-linecap="round" stroke-linejoin="round"/>
<path d="M6.63916 6.96197V6.35095" stroke="white" stroke-width="0.754789" stroke-miterlimit="10" stroke-linecap="round" stroke-linejoin="round"/>
<path d="M6.63916 10.0171V10.6281" stroke="white" stroke-width="0.754789" stroke-miterlimit="10" stroke-linecap="round" stroke-linejoin="round"/>
</svg>
