<svg width="10" height="13" viewBox="0 0 10 13" fill="none" xmlns="http://www.w3.org/2000/svg">
<path d="M7.31161 12.3876C7.19712 12.4477 7.06474 12.4678 6.9368 12.4443C6.80885 12.4208 6.69316 12.3553 6.60922 12.2588L0.382646 5.12305L7.31161 12.3876ZM7.31161 12.3876C7.42609 12.3274 7.51569 12.2308 7.56531 12.1141C7.61492 11.9973 7.6215 11.8676 7.58396 11.7467L6.13933 7.0773H6.1043V6.96408L6.21246 6.93061L6.22281 6.96408H8.73984C8.83633 6.96412 8.93124 6.94024 9.01555 6.89471C9.09985 6.84917 9.17075 6.7835 9.22151 6.70391C9.27227 6.62433 9.30121 6.53349 9.30557 6.44001C9.30994 6.34653 9.28959 6.25352 9.24645 6.16981L7.31161 12.3876ZM0.815109 4.33278H0.815037C0.727921 4.33272 0.642849 4.35684 0.569887 4.40197C0.496955 4.44708 0.439358 4.51116 0.403417 4.58625C0.367493 4.6613 0.354547 4.7445 0.365889 4.82615C0.377233 4.90783 0.412477 4.98505 0.467947 5.04861L0.467953 5.04861L6.69452 12.1844L6.69465 12.1845C6.76144 12.2613 6.85405 12.314 6.95721 12.3329C7.0604 12.3519 7.16703 12.3356 7.25895 12.2873C7.35081 12.2391 7.42192 12.162 7.46111 12.0698C7.50026 11.9777 7.50541 11.8755 7.47583 11.7803L7.4758 11.7801L5.99614 6.99754L5.95076 6.85086H6.1043H8.73984H8.73989C8.81772 6.85089 8.8941 6.83162 8.96174 6.79509C9.02936 6.75857 9.08582 6.70611 9.12605 6.64303C9.16628 6.57997 9.18904 6.50827 9.19248 6.43473C9.19591 6.3612 9.17993 6.28789 9.14582 6.2217C9.14582 6.22169 9.14582 6.22168 9.14581 6.22167L6.31556 0.732659L6.31555 0.732635C6.27836 0.660454 6.2209 0.599259 6.14919 0.556294C6.07745 0.513313 5.99448 0.490409 5.90963 0.490447H5.90958L1.94721 0.490447L1.947 0.490447C1.86677 0.490293 1.78811 0.510651 1.71896 0.549231C1.64983 0.587799 1.59284 0.643103 1.55338 0.709228C1.51394 0.775326 1.4933 0.850053 1.49326 0.925919C1.49322 1.00179 1.51379 1.07653 1.55316 1.14266L1.55341 1.14309L3.33308 4.16206L3.43371 4.33278H3.23555H0.815109ZM5.82697 9.50441L5.63352 9.61233L1.95021 5.39181L1.78644 5.20415H2.03552L4.21142 5.20415L4.21164 5.20415C4.29186 5.2043 4.37053 5.18394 4.43967 5.14536C4.5088 5.10679 4.56579 5.05149 4.60525 4.98537C4.64469 4.91927 4.66533 4.84454 4.66537 4.76867C4.66541 4.69281 4.64485 4.61806 4.60547 4.55193L4.60522 4.5515L2.82555 1.53253L2.72492 1.36182H2.92309H5.55976H5.62876L5.66039 1.42315L7.92459 5.81438L8.00972 5.97949H7.82396H5.34352H5.34345C5.27219 5.97944 5.20204 5.99558 5.13865 6.02646C5.07526 6.05733 5.02055 6.102 4.97869 6.15662C4.93684 6.21123 4.90894 6.27431 4.89696 6.34077C4.88499 6.40723 4.88921 6.47548 4.90935 6.54015L4.9094 6.54033L5.82697 9.50441Z" fill="white" stroke="#202020" stroke-width="0.226437"/>
</svg>
