<svg width="13" height="13" viewBox="0 0 13 13" fill="none" xmlns="http://www.w3.org/2000/svg">
<path fill-rule="evenodd" clip-rule="evenodd" d="M1.52062 4.92095C1.52062 2.9611 3.29629 1.37184 5.63011 1.37184C7.48798 1.37184 9.36601 2.9611 9.36601 4.92095C9.36601 6.88118 7.89967 8.47006 5.63011 8.47006C5.29649 8.47006 4.60049 8.43196 4.29004 8.36733L3.01498 9.21724V7.89323C2.10379 7.1539 1.52062 6.1665 1.52062 4.92095ZM4.37372 9.11861C4.664 9.16606 5.32414 9.21724 5.63011 9.21724C8.31249 9.21724 10.1132 7.22115 10.1132 4.87425C10.1132 2.52736 7.86306 0.624664 5.63011 0.624664C2.94437 0.624664 0.773438 2.52736 0.773438 4.87425C0.773438 6.23412 1.29161 7.38815 2.2678 8.21939V10.338L4.37372 9.11861ZM10.8413 4.03891C10.8484 4.14576 10.8604 4.25185 10.8604 4.36057C10.8604 4.59817 10.8372 4.83091 10.804 5.06067C11.3068 5.64945 11.6076 6.37497 11.6076 7.16249C11.6076 8.40804 10.8634 9.50154 9.7396 10.1348V11.4588L8.46454 10.6089C8.15409 10.6735 7.83168 10.7116 7.49806 10.7116C6.53046 10.7116 6.0164 10.4209 5.31405 9.93789C5.11044 9.95433 4.90497 9.96442 4.69614 9.96442C4.54745 9.96442 4.40175 9.95396 4.2553 9.94537C5.14482 10.8147 6.05937 11.3654 7.49806 11.3654C7.80403 11.3654 8.10253 11.3377 8.39281 11.2903L10.4868 12.5796V10.4609C11.6225 9.68274 12.3547 8.47566 12.3547 7.1158C12.3547 5.90387 11.7716 4.81299 10.8413 4.03891ZM7.68486 5.48134C7.99456 5.48134 8.24524 5.23066 8.24524 4.92095C8.24524 4.61162 7.99456 4.36057 7.68486 4.36057C7.37515 4.36057 7.12447 4.61162 7.12447 4.92095C7.12447 5.23066 7.37515 5.48134 7.68486 5.48134ZM3.20177 5.48134C3.51148 5.48134 3.76216 5.23066 3.76216 4.92095C3.76216 4.61162 3.51148 4.36057 3.20177 4.36057C2.89207 4.36057 2.64139 4.61162 2.64139 4.92095C2.64139 5.23066 2.89207 5.48134 3.20177 5.48134ZM5.44332 5.48134C5.75302 5.48134 6.0037 5.23066 6.0037 4.92095C6.0037 4.61162 5.75302 4.36057 5.44332 4.36057C5.13361 4.36057 4.88293 4.61162 4.88293 4.92095C4.88293 5.23066 5.13361 5.48134 5.44332 5.48134Z" fill="white"/>
</svg>
