<svg width="14" height="12" viewBox="0 0 14 12" fill="none" xmlns="http://www.w3.org/2000/svg">
<path d="M9.4015 6.50928L9.47179 6.43899C9.80321 6.10757 10.1903 5.8474 10.6223 5.66569L12.2775 4.96949C12.2775 4.96949 12.727 4.77565 12.8274 4.71875C12.962 4.64251 13.0953 4.53754 13.235 4.39777C14.0528 3.57996 14.0939 2.26131 13.3285 1.39572C13.2697 1.32922 13.1803 1.29841 13.093 1.31474C13.0058 1.33101 12.9335 1.3919 12.9026 1.47513L12.2994 3.09997L11.8493 2.93335L12.4836 1.20721C12.5142 1.12388 12.4988 1.0306 12.4431 0.961521C12.3873 0.892438 12.2994 0.857671 12.2115 0.870046C11.3578 0.989806 10.664 1.59349 10.4189 2.40386L9.3772 2.01823C9.3073 1.99236 9.22955 1.9987 9.16476 2.03552C9.09997 2.07236 9.05474 2.13591 9.04121 2.20918L8.8015 3.50642C8.68934 4.11347 8.42673 4.6734 8.03706 5.14464L5.81996 2.92777L5.9776 2.77012C6.07623 2.67149 6.07623 2.51161 5.9776 2.41298L5.81101 2.24639C6.31884 1.62298 6.96848 1.59222 7.44087 1.68586C7.545 1.70654 7.65104 1.65976 7.70601 1.56885C7.76098 1.47796 7.75323 1.36241 7.68659 1.27969C7.4636 1.00294 7.1862 0.787213 6.86222 0.638607C6.07904 0.278795 5.15516 0.39732 4.48835 0.923724L4.35046 0.785838C4.25183 0.687207 4.09194 0.687207 3.99331 0.785838L2.45987 2.31931C2.36194 2.41724 2.36112 2.57575 2.4581 2.67466C2.54553 2.76387 2.50412 2.9602 2.36949 3.09483C2.23485 3.22947 2.03852 3.27088 1.94932 3.18345C1.8504 3.08647 1.69187 3.08729 1.59396 3.18521L0.847655 3.9315C0.749024 4.03013 0.749024 4.19001 0.847655 4.28864L2.47479 5.91578C2.5241 5.96508 2.58875 5.98975 2.65337 5.98975C2.71799 5.98975 2.78261 5.96508 2.83194 5.91578L3.57825 5.16947C3.67587 5.07185 3.67702 4.91393 3.5808 4.81491C3.49402 4.72559 3.53568 4.52951 3.66995 4.39524C3.80419 4.261 4.00027 4.21931 4.08959 4.3061C4.18858 4.40234 4.34653 4.40119 4.44415 4.30357L4.58358 4.16414L6.81247 6.39303L3.15051 10.0549C2.96986 10.2356 2.87036 10.4758 2.87036 10.7313C2.87036 10.9868 2.96986 11.227 3.15051 11.4076C3.33696 11.5941 3.5819 11.6873 3.82686 11.6873C4.0718 11.6873 4.31673 11.5941 4.50319 11.4076L8.1651 7.74571L12.099 11.6796C12.1483 11.7289 12.2129 11.7535 12.2775 11.7535C12.3422 11.7535 12.4068 11.7289 12.4561 11.6796L13.3355 10.8002C13.3829 10.7528 13.4095 10.6886 13.4095 10.6216C13.4095 10.5546 13.3829 10.4904 13.3355 10.443L9.4015 6.50928ZM11.8398 1.49494L11.3757 2.758L10.8943 2.57979C11.0328 2.08998 11.3826 1.6945 11.8398 1.49494ZM6.65152 1.09761C6.69209 1.11622 6.73168 1.13617 6.77035 1.15744C6.25727 1.22214 5.80733 1.47064 5.45265 1.888L4.84866 1.28401C5.36401 0.904447 6.05923 0.825515 6.65152 1.09761ZM4.17192 1.32153L5.44191 2.59152L4.29263 3.7408L3.02264 2.47081L4.17192 1.32153ZM2.65337 5.38006L1.38337 4.11007L1.77254 3.72091L3.04253 4.9909L2.65337 5.38006ZM3.31278 4.0381C3.22155 4.12932 3.15244 4.23205 3.10494 4.33904L2.42575 3.65988C2.53265 3.61234 2.63533 3.5432 2.72658 3.45195C2.8286 3.34993 2.90344 3.23376 2.95075 3.11321L3.65163 3.81409C3.531 3.86135 3.41477 3.93613 3.31278 4.0381ZM4.94067 3.80699L5.46281 3.28486L7.69181 5.51363L7.16956 6.03588L4.94067 3.80699ZM4.14604 11.0505C4.06077 11.1357 3.94741 11.1827 3.82683 11.1827C3.70626 11.1827 3.5929 11.1357 3.50765 11.0505C3.33166 10.8745 3.33166 10.5881 3.50765 10.4121L8.16355 5.75618C8.7541 5.16566 9.14644 4.4194 9.29818 3.59817L9.48338 2.59607L12.3607 3.66125C12.4914 3.70966 12.6366 3.64296 12.6851 3.51228L13.2047 2.11268C13.5091 2.74352 13.3959 3.52261 12.8779 4.04065C12.7708 4.14775 12.6728 4.22582 12.5784 4.27933C12.5197 4.31258 12.0495 4.51747 12.0495 4.51747L10.4265 5.20011C9.93386 5.40731 9.4925 5.70396 9.11462 6.08184L4.14604 11.0505ZM12.2775 11.1439L8.52224 7.38857L9.04436 6.86645L12.7998 10.6216L12.2775 11.1439Z" fill="white"/>
</svg>
