<svg width="11" height="12" viewBox="0 0 11 12" fill="none" xmlns="http://www.w3.org/2000/svg">
<path d="M7.97341 3.84104L7.75774 8.23828L6.12538 7.25335H4.54603V3.30295L1.89442 0.979797V2.26726L0.283203 1.03314V11.1288H3.95753H4.54606H7.61599H7.93586H10.1002L9.74273 3.84104H7.97341ZM3.95368 10.5364H0.875551V9.57962H2.75294V8.98727H0.875551V7.90789H2.75294V7.31555H0.875551V6.23617H2.75294V5.64382H0.875551V4.56445H2.75294V3.9721H0.875551V2.233L2.48677 3.46712V2.28634L3.95368 3.57155V10.5364ZM7.64505 10.5364H4.54988V7.84567H5.96053L7.72481 8.91021L7.64505 10.5364ZM8.23808 10.5364L8.53742 4.43339H9.17872L9.47807 10.5364H8.23808Z" fill="white"/>
<path d="M10.6295 0.897093C10.4132 0.680797 10.1256 0.561676 9.81972 0.561676C9.51383 0.561676 9.22624 0.680797 9.00992 0.897093C8.85209 1.05492 8.74523 1.25309 8.69959 1.46823C8.62146 1.51248 8.54919 1.56727 8.48566 1.63077C8.0969 2.01953 8.0969 2.6521 8.48566 3.04092C8.674 3.22922 8.92438 3.33294 9.19073 3.33294C9.45708 3.33294 9.70747 3.22922 9.8958 3.04092C9.95933 2.97736 10.0141 2.90512 10.0584 2.82696C10.2735 2.78132 10.4717 2.67449 10.6295 2.51663C11.076 2.07018 11.076 1.3436 10.6295 0.897093ZM10.2107 2.09781C10.1126 2.19587 9.98228 2.25315 9.84376 2.25911L9.63905 2.26793L9.57511 2.46261C9.55523 2.52318 9.52218 2.57681 9.47695 2.62207C9.40051 2.69851 9.29886 2.74063 9.19073 2.74063C9.08263 2.74063 8.98095 2.69851 8.90451 2.6221C8.74668 2.46427 8.74668 2.20745 8.90451 2.04965C8.94973 2.00443 9.0034 1.97137 9.064 1.95147L9.25861 1.88753L9.26744 1.68287C9.27342 1.54432 9.3307 1.41403 9.42877 1.31597C9.53317 1.21154 9.67201 1.15402 9.81969 1.15402C9.96736 1.15402 10.1062 1.21151 10.2106 1.31597C10.4262 1.53153 10.4262 1.88226 10.2107 2.09781Z" fill="white"/>
</svg>
